<svg id="Component_235_18" data-name="Component 235 – 18" xmlns="http://www.w3.org/2000/svg" xmlns:xlink="http://www.w3.org/1999/xlink" width="25.25" height="14.276" viewBox="0 0 25.25 14.276">
  <defs>
    <clipPath id="clip-path">
      <rect id="Rectangle_1683" data-name="Rectangle 1683" width="25.25" height="14.276" fill="none"/>
    </clipPath>
  </defs>
  <g id="Group_1165" data-name="Group 1165" clip-path="url(#clip-path)">
    <path id="Path_1138" data-name="Path 1138" d="M25.132,6.5,22.371,2.405A.692.692,0,0,0,21.8,2.1H19.7A2.26,2.26,0,0,0,17.449,0H8.706A2.261,2.261,0,0,0,6.447,2.26v.09H0V3.733H6.447V4.874H2.177V6.258h4.27V7.4H4.614V8.782H6.447v.377a2.26,2.26,0,0,0,2.18,2.255c0,.025,0,.051,0,.076a2.788,2.788,0,0,0,5.575,0c0-.024,0-.048,0-.072h2.037c0,.024,0,.048,0,.072a2.787,2.787,0,0,0,5.575,0c0-.024,0-.048,0-.072h2.759a.692.692,0,0,0,.692-.692V6.885a.692.692,0,0,0-.118-.387m-13.721,6.4a1.4,1.4,0,1,1,1.4-1.4,1.405,1.405,0,0,1-1.4,1.4m2.373-2.859a2.78,2.78,0,0,0-4.746,0H8.706a.876.876,0,0,1-.875-.875V2.26a.876.876,0,0,1,.875-.875h8.743a.876.876,0,0,1,.875.875V8.792a2.792,2.792,0,0,0-1.681,1.242Zm5.231,2.859a1.4,1.4,0,1,1,1.4-1.4,1.406,1.406,0,0,1-1.4,1.4m4.851-2.859H21.389A2.793,2.793,0,0,0,19.731,8.8V3.484h1.7L23.866,7.1Z" transform="translate(0 -0.001)"/>
  </g>
</svg>
