<svg id="Component_201_21" data-name="Component 201 – 21" xmlns="http://www.w3.org/2000/svg" width="22.086" height="25.449" viewBox="0 0 22.086 25.449">
  <path id="Path_1103" data-name="Path 1103" d="M18.585,34.8H3.5A3.505,3.505,0,0,1,0,31.3V14.7H22.086V31.3A3.505,3.505,0,0,1,18.585,34.8ZM1.818,16.518V31.3A1.687,1.687,0,0,0,3.5,32.987h15.08A1.687,1.687,0,0,0,20.265,31.3V16.518Z" transform="translate(0 -9.355)"/>
  <path id="Path_1104" data-name="Path 1104" d="M26.644,11.6H24.826V2.945A1.128,1.128,0,0,0,23.7,1.818H18.315a1.128,1.128,0,0,0-1.127,1.127V11.6H15.37V2.945A2.949,2.949,0,0,1,18.315,0H23.7a2.949,2.949,0,0,1,2.945,2.945Z" transform="translate(-9.782)"/>
</svg>
