<svg id="Component_245_3" data-name="Component 245 – 3" xmlns="http://www.w3.org/2000/svg" xmlns:xlink="http://www.w3.org/1999/xlink" width="24.476" height="10" viewBox="0 0 24.476 10">
  <defs>
    <clipPath id="clip-path">
      <rect id="Rectangle_1689" data-name="Rectangle 1689" width="24.476" height="10" fill="none"/>
    </clipPath>
  </defs>
  <g id="Group_1167" data-name="Group 1167" transform="translate(24.476 10) rotate(180)" clip-path="url(#clip-path)">
    <path id="Path_1157" data-name="Path 1157" d="M.22,9.772a.729.729,0,0,0,.516.211H4.417a.7.7,0,0,0,.307,0H8.267a.706.706,0,0,0,.268,0H12.1a.694.694,0,0,0,.276,0h3.549a.673.673,0,0,0,.3,0h3.544a.706.706,0,0,0,.268,0h3.7a.741.741,0,0,0,.739-.748V.748A.741.741,0,0,0,23.734,0h-23A.744.744,0,0,0,0,.748V9.306A.761.761,0,0,0,.22,9.772ZM1.475,8.478V1.5L23,1.5V8.478H20.639V4.828a.739.739,0,1,0-1.478,0v3.65H16.808V6.492a.74.74,0,1,0-1.481,0V8.478H12.974l0-3.65a.74.74,0,1,0-1.481,0v3.65H9.14V6.486a.738.738,0,1,0-1.475-.06V8.478H5.309l0-3.65a.738.738,0,1,0-1.472-.114.775.775,0,0,0,0,.114l0,3.65Z" transform="translate(0 0)"/>
  </g>
</svg>
