<svg id="Component_200_21" data-name="Component 200 – 21" xmlns="http://www.w3.org/2000/svg" width="22.321" height="20.19" viewBox="0 0 22.321 20.19">
  <path id="Path_1099" data-name="Path 1099" d="M9.857,4.936c.044,0,.091,0,.135,0A4.157,4.157,0,0,1,12.9,6.252l1.985,2.112.167.167L17.2,6.248a4.173,4.173,0,1,1,6.082,5.715l-8.235,8.751L6.817,11.964A4.168,4.168,0,0,1,9.857,4.936Z" transform="translate(-3.891 -3.139)" fill="#fff"/>
  <path id="Path_1100" data-name="Path 1100" d="M12.489,14.627l-.774-.745a2.754,2.754,0,0,1-.894-1.909,2.892,2.892,0,0,1,1.411-2.25c.1-.08.2-.156.291-.233l1.12,1.291c-.109.095-.233.193-.36.291-.454.353-.753.607-.753.905a1.124,1.124,0,0,0,.4.705l.749.723Z" transform="translate(-7.159 -6.038)"/>
  <g id="Group_1073" data-name="Group 1073">
    <path id="Path_1101" data-name="Path 1101" d="M21.19,1.611a5.979,5.979,0,0,0-8.438.262l-.313.334V2.2l-.531.56-.524-.553h0l-.313-.331a5.971,5.971,0,0,0-8.7,8.176l9.016,9.583.516.549.015-.015.015.011,9.522-10.129a5.971,5.971,0,0,0-.262-8.442ZM6.717,1.793c.044,0,.091,0,.135,0A4.157,4.157,0,0,1,9.764,3.109l1.985,2.112.167.167,2.145-2.283a4.173,4.173,0,1,1,6.082,5.715l-8.235,8.751L3.678,8.821A4.168,4.168,0,0,1,6.717,1.793Z" transform="translate(-0.751 0.004)"/>
  </g>
</svg>
